<?xml version="1.0" encoding="UTF-8"?>
<svg xmlns="http://www.w3.org/2000/svg" viewBox="0 0 16 16">
  <path d="M14.64 8.95c-.09-.73-.42-1.4-.89-1.93-.47-.53-1.08-.86-1.75-.93-.32-.89-.85-1.68-1.56-2.27-.71-.59-1.58-.91-2.48-.78-1.39.23-2.65.95-3.56 2.01-.91 1.07-1.42 2.43-1.44 3.82-.71 0-1.39.28-1.89.78-.5.5-.78 1.18-.78 1.89 0 .71.28 1.39.78 1.89.5.5 1.18.78 1.89.78h4" fill="none" stroke="currentColor" stroke-width="1" stroke-linecap="round" stroke-linejoin="round"/>
  <path d="M12.52 10v5.33" fill="none" stroke="currentColor" stroke-width="1" stroke-linecap="round" stroke-linejoin="round"/>
  <path d="M14.65 13.2l-2.13 2.13-2.13-2.13" fill="none" stroke="currentColor" stroke-width="1" stroke-linecap="round" stroke-linejoin="round"/>
</svg>