<?xml version="1.0" encoding="UTF-8"?>
<svg xmlns="http://www.w3.org/2000/svg" width="16" height="16" viewBox="0 0 16 16">
  <defs>
    <style>
      .cls-1 {
        fill: currentColor;
        fill-rule: evenodd;
      }
    </style>
  </defs>
  <!-- Lock shackle - bigger and centered -->
  <path class="cls-1" d="M3 4.5A5 5 0 0 1 8 0A5 5 0 0 1 13 4.5V6h-1.5V4.5A3.5 3.5 0 0 0 8 1A3.5 3.5 0 0 0 4.5 4.5V6H3V4.5z"/>

  <!-- Lock body with carved plus - bigger and centered -->
  <path class="cls-1" d="M2 6v8a1 1 0 0 0 1 1h10a1 1 0 0 0 1-1V6H2z M7 9h2v1.5h1.5v2H9V14H7v-1.5H5.5v-2H7V9z" fill-rule="evenodd"/>
</svg>
